<mxfile host="app.diagrams.net" modified="2023-05-26T16:54:47.248Z" agent="Mozilla/5.0 (Windows NT 10.0; Win64; x64) AppleWebKit/537.36 (KHTML, like Gecko) Chrome/113.0.0.0 Safari/537.36" etag="1duRVu-UejkrMKAtFVL0" version="21.3.4" type="device">
  <diagram name="Page-1" id="cU4VuN7UHBKeXWsBpAET">
    <mxGraphModel dx="1050" dy="573" grid="1" gridSize="10" guides="1" tooltips="1" connect="1" arrows="1" fold="1" page="1" pageScale="1" pageWidth="827" pageHeight="1169" math="0" shadow="0">
      <root>
        <mxCell id="0" />
        <mxCell id="1" parent="0" />
        <mxCell id="C65ZCXQeM-prXD3eXHWz-14" style="edgeStyle=orthogonalEdgeStyle;rounded=0;orthogonalLoop=1;jettySize=auto;html=1;exitX=0;exitY=0.25;exitDx=0;exitDy=0;" edge="1" parent="1">
          <mxGeometry relative="1" as="geometry">
            <mxPoint x="190" y="55" as="targetPoint" />
            <mxPoint x="200" y="55" as="sourcePoint" />
          </mxGeometry>
        </mxCell>
        <mxCell id="C65ZCXQeM-prXD3eXHWz-33" value="" style="edgeStyle=orthogonalEdgeStyle;rounded=0;orthogonalLoop=1;jettySize=auto;html=1;" edge="1" parent="1" source="C65ZCXQeM-prXD3eXHWz-13" target="C65ZCXQeM-prXD3eXHWz-17">
          <mxGeometry relative="1" as="geometry">
            <Array as="points">
              <mxPoint x="140" y="60" />
              <mxPoint x="140" y="60" />
            </Array>
          </mxGeometry>
        </mxCell>
        <mxCell id="C65ZCXQeM-prXD3eXHWz-13" value="HOME" style="rounded=0;whiteSpace=wrap;html=1;" vertex="1" parent="1">
          <mxGeometry x="40" y="40" width="70" height="40" as="geometry" />
        </mxCell>
        <mxCell id="C65ZCXQeM-prXD3eXHWz-38" value="" style="edgeStyle=orthogonalEdgeStyle;rounded=0;orthogonalLoop=1;jettySize=auto;html=1;" edge="1" parent="1" source="C65ZCXQeM-prXD3eXHWz-16" target="C65ZCXQeM-prXD3eXHWz-31">
          <mxGeometry relative="1" as="geometry" />
        </mxCell>
        <mxCell id="C65ZCXQeM-prXD3eXHWz-16" value="ACTION" style="rounded=0;whiteSpace=wrap;html=1;" vertex="1" parent="1">
          <mxGeometry x="170" y="120" width="70" height="40" as="geometry" />
        </mxCell>
        <mxCell id="C65ZCXQeM-prXD3eXHWz-34" value="" style="edgeStyle=orthogonalEdgeStyle;rounded=0;orthogonalLoop=1;jettySize=auto;html=1;" edge="1" parent="1" source="C65ZCXQeM-prXD3eXHWz-17" target="C65ZCXQeM-prXD3eXHWz-19">
          <mxGeometry relative="1" as="geometry" />
        </mxCell>
        <mxCell id="C65ZCXQeM-prXD3eXHWz-37" value="" style="edgeStyle=orthogonalEdgeStyle;rounded=0;orthogonalLoop=1;jettySize=auto;html=1;" edge="1" parent="1" source="C65ZCXQeM-prXD3eXHWz-17" target="C65ZCXQeM-prXD3eXHWz-16">
          <mxGeometry relative="1" as="geometry" />
        </mxCell>
        <mxCell id="C65ZCXQeM-prXD3eXHWz-17" value="MOVIES" style="rounded=0;whiteSpace=wrap;html=1;" vertex="1" parent="1">
          <mxGeometry x="170" y="40" width="70" height="40" as="geometry" />
        </mxCell>
        <mxCell id="C65ZCXQeM-prXD3eXHWz-18" value="FEEDBACK" style="rounded=0;whiteSpace=wrap;html=1;" vertex="1" parent="1">
          <mxGeometry x="690" y="40" width="70" height="40" as="geometry" />
        </mxCell>
        <mxCell id="C65ZCXQeM-prXD3eXHWz-35" value="" style="edgeStyle=orthogonalEdgeStyle;rounded=0;orthogonalLoop=1;jettySize=auto;html=1;" edge="1" parent="1" source="C65ZCXQeM-prXD3eXHWz-19" target="C65ZCXQeM-prXD3eXHWz-30">
          <mxGeometry relative="1" as="geometry" />
        </mxCell>
        <mxCell id="C65ZCXQeM-prXD3eXHWz-39" value="" style="edgeStyle=orthogonalEdgeStyle;rounded=0;orthogonalLoop=1;jettySize=auto;html=1;" edge="1" parent="1" source="C65ZCXQeM-prXD3eXHWz-19" target="C65ZCXQeM-prXD3eXHWz-20">
          <mxGeometry relative="1" as="geometry" />
        </mxCell>
        <mxCell id="C65ZCXQeM-prXD3eXHWz-19" value="TVSHOWS" style="rounded=0;whiteSpace=wrap;html=1;" vertex="1" parent="1">
          <mxGeometry x="300" y="40" width="70" height="40" as="geometry" />
        </mxCell>
        <mxCell id="C65ZCXQeM-prXD3eXHWz-40" value="" style="edgeStyle=orthogonalEdgeStyle;rounded=0;orthogonalLoop=1;jettySize=auto;html=1;" edge="1" parent="1" source="C65ZCXQeM-prXD3eXHWz-20" target="C65ZCXQeM-prXD3eXHWz-29">
          <mxGeometry relative="1" as="geometry" />
        </mxCell>
        <mxCell id="C65ZCXQeM-prXD3eXHWz-43" value="" style="edgeStyle=orthogonalEdgeStyle;rounded=0;orthogonalLoop=1;jettySize=auto;html=1;" edge="1" parent="1" source="C65ZCXQeM-prXD3eXHWz-20" target="C65ZCXQeM-prXD3eXHWz-28">
          <mxGeometry relative="1" as="geometry" />
        </mxCell>
        <mxCell id="C65ZCXQeM-prXD3eXHWz-20" value="GAMES&amp;amp;APPS" style="rounded=0;whiteSpace=wrap;html=1;" vertex="1" parent="1">
          <mxGeometry x="430" y="40" width="70" height="40" as="geometry" />
        </mxCell>
        <mxCell id="C65ZCXQeM-prXD3eXHWz-24" value="NEW SERIES" style="rounded=0;whiteSpace=wrap;html=1;" vertex="1" parent="1">
          <mxGeometry x="300" y="200" width="70" height="40" as="geometry" />
        </mxCell>
        <mxCell id="C65ZCXQeM-prXD3eXHWz-25" value="ROMANCE" style="rounded=0;whiteSpace=wrap;html=1;" vertex="1" parent="1">
          <mxGeometry x="170" y="200" width="70" height="40" as="geometry" />
        </mxCell>
        <mxCell id="C65ZCXQeM-prXD3eXHWz-42" value="" style="edgeStyle=orthogonalEdgeStyle;rounded=0;orthogonalLoop=1;jettySize=auto;html=1;" edge="1" parent="1" source="C65ZCXQeM-prXD3eXHWz-26" target="C65ZCXQeM-prXD3eXHWz-27">
          <mxGeometry relative="1" as="geometry" />
        </mxCell>
        <mxCell id="C65ZCXQeM-prXD3eXHWz-26" value="NEW GAMES" style="rounded=0;whiteSpace=wrap;html=1;" vertex="1" parent="1">
          <mxGeometry x="440" y="200" width="70" height="40" as="geometry" />
        </mxCell>
        <mxCell id="C65ZCXQeM-prXD3eXHWz-27" value="APPS" style="rounded=0;whiteSpace=wrap;html=1;" vertex="1" parent="1">
          <mxGeometry x="440" y="290" width="70" height="40" as="geometry" />
        </mxCell>
        <mxCell id="C65ZCXQeM-prXD3eXHWz-44" value="" style="edgeStyle=orthogonalEdgeStyle;rounded=0;orthogonalLoop=1;jettySize=auto;html=1;" edge="1" parent="1" source="C65ZCXQeM-prXD3eXHWz-28" target="C65ZCXQeM-prXD3eXHWz-32">
          <mxGeometry relative="1" as="geometry" />
        </mxCell>
        <mxCell id="C65ZCXQeM-prXD3eXHWz-45" value="" style="edgeStyle=orthogonalEdgeStyle;rounded=0;orthogonalLoop=1;jettySize=auto;html=1;" edge="1" parent="1" source="C65ZCXQeM-prXD3eXHWz-28" target="C65ZCXQeM-prXD3eXHWz-18">
          <mxGeometry relative="1" as="geometry" />
        </mxCell>
        <mxCell id="C65ZCXQeM-prXD3eXHWz-28" value="COLLECTIONS" style="rounded=0;whiteSpace=wrap;html=1;" vertex="1" parent="1">
          <mxGeometry x="570" y="40" width="70" height="40" as="geometry" />
        </mxCell>
        <mxCell id="C65ZCXQeM-prXD3eXHWz-41" value="" style="edgeStyle=orthogonalEdgeStyle;rounded=0;orthogonalLoop=1;jettySize=auto;html=1;" edge="1" parent="1" source="C65ZCXQeM-prXD3eXHWz-29" target="C65ZCXQeM-prXD3eXHWz-26">
          <mxGeometry relative="1" as="geometry" />
        </mxCell>
        <mxCell id="C65ZCXQeM-prXD3eXHWz-29" value="OLD GAMES" style="rounded=0;whiteSpace=wrap;html=1;" vertex="1" parent="1">
          <mxGeometry x="440" y="120" width="70" height="40" as="geometry" />
        </mxCell>
        <mxCell id="C65ZCXQeM-prXD3eXHWz-36" value="" style="edgeStyle=orthogonalEdgeStyle;rounded=0;orthogonalLoop=1;jettySize=auto;html=1;" edge="1" parent="1" source="C65ZCXQeM-prXD3eXHWz-30" target="C65ZCXQeM-prXD3eXHWz-24">
          <mxGeometry relative="1" as="geometry" />
        </mxCell>
        <mxCell id="C65ZCXQeM-prXD3eXHWz-30" value="POPULAR&amp;nbsp;&lt;br&gt;SERIES" style="rounded=0;whiteSpace=wrap;html=1;" vertex="1" parent="1">
          <mxGeometry x="300" y="120" width="70" height="40" as="geometry" />
        </mxCell>
        <mxCell id="C65ZCXQeM-prXD3eXHWz-31" value="SCI-FI ROMANCE" style="rounded=0;whiteSpace=wrap;html=1;" vertex="1" parent="1">
          <mxGeometry x="170" y="270" width="70" height="40" as="geometry" />
        </mxCell>
        <mxCell id="C65ZCXQeM-prXD3eXHWz-32" value="COLLECTION" style="rounded=0;whiteSpace=wrap;html=1;" vertex="1" parent="1">
          <mxGeometry x="560" y="130" width="90" height="40" as="geometry" />
        </mxCell>
      </root>
    </mxGraphModel>
  </diagram>
</mxfile>
